<svg width="48" height="48" viewBox="0 0 48 48" fill="none" xmlns="http://www.w3.org/2000/svg">
<rect width="48" height="48" rx="4" fill="#EDD8FF" fill-opacity="0.5"/>
<path d="M30.0001 16.48C28.4088 14.8887 26.2505 13.9948 24.0001 13.9948C21.7496 13.9948 19.5914 14.8887 18.0001 16.48C16.4088 18.0713 15.5148 20.2296 15.5148 22.48C15.5148 24.7305 16.4088 26.8887 18.0001 28.48L23.2701 33.76C23.363 33.8538 23.4736 33.9282 23.5955 33.9789C23.7173 34.0297 23.848 34.0558 23.9801 34.0558C24.1121 34.0558 24.2428 34.0297 24.3646 33.9789C24.4865 33.9282 24.5971 33.8538 24.6901 33.76L30.0001 28.43C31.5847 26.8454 32.4749 24.6961 32.4749 22.455C32.4749 20.214 31.5847 18.0647 30.0001 16.48ZM28.5701 27L24.0001 31.59L19.4301 27C18.5272 26.0963 17.9125 24.9453 17.6637 23.6923C17.415 22.4394 17.5432 21.1408 18.0324 19.9607C18.5215 18.7806 19.3495 17.7721 20.4117 17.0625C21.4739 16.3529 22.7226 15.9742 24.0001 15.9742C25.2775 15.9742 26.5262 16.3529 27.5884 17.0625C28.6506 17.7721 29.4786 18.7806 29.9677 19.9607C30.4569 21.1408 30.5851 22.4394 30.3364 23.6923C30.0876 24.9453 29.4729 26.0963 28.5701 27ZM21.0001 19.41C20.1928 20.2198 19.7394 21.3166 19.7394 22.46C19.7394 23.6035 20.1928 24.7003 21.0001 25.51C21.5998 26.1108 22.3636 26.5211 23.1957 26.6894C24.0278 26.8578 24.891 26.7766 25.6771 26.4562C26.4632 26.1358 27.1372 25.5903 27.6145 24.8883C28.0918 24.1863 28.3512 23.3589 28.3601 22.51C28.3646 21.9432 28.2554 21.3813 28.039 20.8574C27.8225 20.3335 27.5033 19.8584 27.1001 19.46C26.7037 19.0546 26.2311 18.7316 25.7095 18.5095C25.1878 18.2874 24.6274 18.1707 24.0605 18.1661C23.4935 18.1614 22.9313 18.2689 22.406 18.4824C21.8808 18.6959 21.403 19.0112 21.0001 19.41ZM25.6901 24.09C25.3111 24.4748 24.8103 24.7159 24.2732 24.7723C23.7361 24.8286 23.1961 24.6967 22.7456 24.399C22.295 24.1012 21.9618 23.6563 21.8031 23.1401C21.6443 22.624 21.6697 22.0687 21.875 21.5692C22.0803 21.0697 22.4528 20.657 22.9286 20.4018C23.4045 20.1465 23.9543 20.0644 24.484 20.1696C25.0137 20.2749 25.4904 20.5608 25.8326 20.9786C26.1748 21.3963 26.3612 21.92 26.3601 22.46C26.3455 23.0773 26.0865 23.6636 25.6401 24.09H25.6901Z" fill="#A53DFF"/>
</svg>
