<svg width="72" height="72" viewBox="0 0 72 72" fill="none" xmlns="http://www.w3.org/2000/svg">
<rect width="72" height="72" rx="6" fill="#EDD8FF" fill-opacity="0.5"/>
<path d="M29.3333 41.3332C29.8638 41.3332 30.3725 41.1225 30.7475 40.7474C31.1226 40.3723 31.3333 39.8636 31.3333 39.3332C31.3398 39.2667 31.3398 39.1997 31.3333 39.1332L35.0533 35.4132H35.36H35.6667L37.8133 37.5598C37.8133 37.5598 37.8133 37.6265 37.8133 37.6665C37.8133 38.1969 38.024 38.7056 38.3991 39.0807C38.7742 39.4558 39.2829 39.6665 39.8133 39.6665C40.3438 39.6665 40.8525 39.4558 41.2275 39.0807C41.6026 38.7056 41.8133 38.1969 41.8133 37.6665V37.5598L46.6667 32.6665C47.0622 32.6665 47.4489 32.5492 47.7778 32.3294C48.1067 32.1097 48.363 31.7973 48.5144 31.4319C48.6658 31.0664 48.7054 30.6643 48.6282 30.2763C48.5511 29.8884 48.3606 29.532 48.0809 29.2523C47.8012 28.9726 47.4448 28.7821 47.0568 28.7049C46.6689 28.6278 46.2668 28.6674 45.9013 28.8187C45.5358 28.9701 45.2235 29.2265 45.0037 29.5554C44.784 29.8843 44.6667 30.2709 44.6667 30.6665C44.6602 30.733 44.6602 30.8 44.6667 30.8665L39.8533 35.6798H39.64L37.3333 33.3332C37.3333 32.8027 37.1226 32.294 36.7475 31.919C36.3725 31.5439 35.8638 31.3332 35.3333 31.3332C34.8029 31.3332 34.2942 31.5439 33.9191 31.919C33.544 32.294 33.3333 32.8027 33.3333 33.3332L29.3333 37.3332C28.8029 37.3332 28.2942 37.5439 27.9191 37.919C27.544 38.294 27.3333 38.8027 27.3333 39.3332C27.3333 39.8636 27.544 40.3723 27.9191 40.7474C28.2942 41.1225 28.8029 41.3332 29.3333 41.3332V41.3332ZM47.3333 46.6665H24.6667V23.9998C24.6667 23.6462 24.5262 23.3071 24.2761 23.057C24.0261 22.807 23.687 22.6665 23.3333 22.6665C22.9797 22.6665 22.6406 22.807 22.3905 23.057C22.1405 23.3071 22 23.6462 22 23.9998V47.9998C22 48.3535 22.1405 48.6926 22.3905 48.9426C22.6406 49.1927 22.9797 49.3332 23.3333 49.3332H47.3333C47.687 49.3332 48.0261 49.1927 48.2761 48.9426C48.5262 48.6926 48.6667 48.3535 48.6667 47.9998C48.6667 47.6462 48.5262 47.3071 48.2761 47.057C48.0261 46.807 47.687 46.6665 47.3333 46.6665Z" fill="#A53DFF"/>
</svg>
