<svg width="176" height="176" viewBox="0 0 176 176" fill="none" xmlns="http://www.w3.org/2000/svg">
<g filter="url(#filter0_d_2001_102)">
<rect x="64" y="52" width="48" height="48" rx="4" fill="#A53DFF" shape-rendering="crispEdges"/>
<g clip-path="url(#clip0_2001_102)">
<path d="M79 69.0909C79 68.4848 79.2027 67.9848 79.6081 67.5909C80.0135 67.197 80.5405 67 81.1892 67C81.8263 67 82.3417 67.1939 82.7355 67.5818C83.1409 67.9818 83.3436 68.503 83.3436 69.1455C83.3436 69.7273 83.1467 70.2121 82.7529 70.6C82.3475 71 81.8147 71.2 81.1544 71.2H81.1371C80.5 71.2 79.9846 71 79.5907 70.6C79.1969 70.2 79 69.697 79 69.0909ZM79.2259 85V72.8545H83.083V85H79.2259ZM85.2201 85H89.0772V78.2182C89.0772 77.7939 89.1236 77.4666 89.2162 77.2363C89.3784 76.8242 89.6245 76.4757 89.9546 76.1909C90.2847 75.906 90.6988 75.7636 91.1969 75.7636C92.4942 75.7636 93.1429 76.6788 93.1429 78.5091V85H97V78.0363C97 76.2424 96.5946 74.8818 95.7838 73.9545C94.973 73.0273 93.9016 72.5636 92.5695 72.5636C91.0753 72.5636 89.9112 73.2364 89.0772 74.5818V74.6182H89.0598L89.0772 74.5818V72.8545H85.2201C85.2432 73.2424 85.2548 74.4485 85.2548 76.4727C85.2548 78.4969 85.2432 81.3394 85.2201 85Z" fill="white"/>
</g>
</g>
<defs>
<filter id="filter0_d_2001_102" x="0" y="0" width="176" height="176" filterUnits="userSpaceOnUse" color-interpolation-filters="sRGB">
<feFlood flood-opacity="0" result="BackgroundImageFix"/>
<feColorMatrix in="SourceAlpha" type="matrix" values="0 0 0 0 0 0 0 0 0 0 0 0 0 0 0 0 0 0 127 0" result="hardAlpha"/>
<feOffset dy="12"/>
<feGaussianBlur stdDeviation="32"/>
<feComposite in2="hardAlpha" operator="out"/>
<feColorMatrix type="matrix" values="0 0 0 0 0.108333 0 0 0 0 0.0993056 0 0 0 0 0.0993056 0 0 0 0.12 0"/>
<feBlend mode="normal" in2="BackgroundImageFix" result="effect1_dropShadow_2001_102"/>
<feBlend mode="normal" in="SourceGraphic" in2="effect1_dropShadow_2001_102" result="shape"/>
</filter>
<clipPath id="clip0_2001_102">
<rect width="18" height="18" fill="white" transform="translate(79 67)"/>
</clipPath>
</defs>
</svg>
